<?xml version="1.0" encoding="utf-8"?>
<svg version="1.1" xmlns:xlink="http://www.w3.org/1999/xlink" width="17px" height="18px" xmlns="http://www.w3.org/2000/svg">
  <g transform="matrix(1 0 0 1 -501 -485 )">
    <path d="M 4.722222222222222 5.727272727272728  L 4.722222222222222 8.181818181818183  L 12.277777777777777 8.181818181818183  L 12.277777777777777 5.727272727272728  C 12.277777777777777 4.823863636363636  11.908854166666668 4.0525568181818175  11.171006944444445 3.4133522727272716  C 10.433159722222223 2.7741477272727284  9.542824074074076 2.454545454545454  8.5 2.454545454545454  C 7.4571759259259265 2.454545454545454  6.566840277777778 2.7741477272727284  5.828993055555555 3.4133522727272716  C 5.091145833333334 4.0525568181818175  4.722222222222222 4.823863636363636  4.722222222222222 5.727272727272728  Z M 16.586805555555554 8.539772727272728  C 16.86226851851852 8.77840909090909  17 9.068181818181817  17 9.409090909090908  L 17 16.772727272727273  C 17 17.113636363636363  16.86226851851852 17.40340909090909  16.586805555555554 17.642045454545453  C 16.311342592592595 17.88068181818182  15.976851851851853 18  15.583333333333332 18  L 1.4166666666666665 18  C 1.0231481481481484 18  0.6886574074074076 17.88068181818182  0.4131944444444445 17.642045454545453  C 0.13773148148148148 17.40340909090909  0 17.113636363636363  0 16.772727272727273  L 0 9.409090909090908  C 0 9.068181818181817  0.13773148148148148 8.77840909090909  0.4131944444444445 8.539772727272728  C 0.6886574074074076 8.301136363636363  1.0231481481481484 8.181818181818183  1.4166666666666665 8.181818181818183  L 1.8888888888888888 8.181818181818183  L 1.8888888888888888 5.727272727272728  C 1.8888888888888888 4.159090909090907  2.538194444444444 2.8125  3.836805555555556 1.6875  C 5.135416666666666 0.5625  6.689814814814815 0  8.5 0  C 10.310185185185185 0  11.864583333333332 0.5625  13.163194444444445 1.6875  C 14.461805555555555 2.8125  15.11111111111111 4.159090909090907  15.11111111111111 5.727272727272728  L 15.11111111111111 8.181818181818183  L 15.583333333333332 8.181818181818183  C 15.976851851851853 8.181818181818183  16.311342592592595 8.301136363636363  16.586805555555554 8.539772727272728  Z " fill-rule="nonzero" fill="#000000" stroke="none" transform="matrix(1 0 0 1 501 485 )" />
  </g>
</svg>