<?xml version="1.0" encoding="utf-8"?>
<svg version="1.1" xmlns:xlink="http://www.w3.org/1999/xlink" width="45px" height="57px" xmlns="http://www.w3.org/2000/svg">
  <g transform="matrix(1 0 0 1 -460 -409 )">
    <path d="M 33.8671875 2.1629464285714306  L 43.0078125 12.08705357142857  C 43.55468750000001 12.680803571428568  44.0234375 13.486607142857146  44.4140625 14.504464285714285  C 44.8046875 15.52232142857143  45 16.455357142857142  45 17.30357142857143  L 45 53.94642857142857  C 45 54.79464285714286  44.7265625 55.51562499999999  44.1796875 56.109375  C 43.63281250000001 56.70312500000001  42.96875 57  42.1875 57  L 2.8125 57  C 2.0312500000000004 57  1.3671875000000002 56.70312500000001  0.8203125 56.109375  C 0.27343749999999994 55.51562499999999  0 54.79464285714286  0 53.94642857142857  L 0 3.0535714285714306  C 0 2.2053571428571415  0.27343749999999994 1.4843749999999978  0.8203125 0.890625  C 1.3671875000000002 0.2968750000000021  2.0312500000000004 0  2.8125 0  L 29.0625 0  C 29.843750000000004 0  30.703125 0.21205357142857384  31.640625 0.6361607142857152  C 32.578125 1.0602678571428565  33.3203125 1.5691964285714262  33.8671875 2.1629464285714306  Z M 31.201171875 5.025669642857146  C 30.966796875 4.771205357142854  30.566406250000004 4.537946428571422  30 4.325892857142854  L 30 17  L 41.015625 17  C 40.82031250000001 15.670758928571422  40.60546875 15.236049107142854  40.37109375 14.98158482142857  L 31.201171875 5.025669642857146  Z M 4 53  L 41 53  L 41 21  L 29.0625 21  C 28.28125 20.357142857142854  27.6171875 20.060267857142854  27.0703125 19.466517857142854  C 26.5234375 18.872767857142858  26.25 18.151785714285708  26 17.30357142857143  L 26 4  L 4 4  L 4 53  Z M 15.615234375 24.42857142857143  L 6.826171875 24.42857142857143  L 6.826171875 27.83203125  L 8.876953125 27.83203125  L 13.681640625 48.85714285714286  L 18.33984375 48.85714285714286  L 22.08984375 33.430245535714285  C 22.226562500000004 33.006138392857146  22.32421875 32.51841517857142  22.3828125 31.96707589285714  C 22.421875 31.627790178571427  22.44140625 31.373325892857142  22.44140625 31.203683035714285  L 22.55859375 31.203683035714285  L 22.646484375 31.96707589285714  C 22.666015625000004 32.030691964285715  22.700195312500004 32.242745535714285  22.7490234375 32.60323660714286  C 22.797851562500004 32.96372767857142  22.8515625 33.23939732142857  22.91015625 33.430245535714285  L 26.66015625 48.85714285714286  L 31.318359375 48.85714285714286  L 36.123046875 27.83203125  L 38.173828125 27.83203125  L 38.173828125 24.42857142857143  L 29.384765625 24.42857142857143  L 29.384765625 27.83203125  L 32.021484375 27.83203125  L 29.12109375 41.76395089285714  C 29.0234375 42.188058035714285  28.955078125 42.67578125000001  28.916015625 43.227120535714285  L 28.857421875 43.895089285714285  L 28.740234375 43.895089285714285  C 28.740234375000004 43.831473214285715  28.735351562500007 43.76255580357142  28.7255859375 43.68833705357143  C 28.7158203125 43.61411830357144  28.701171875000004 43.529296875  28.681640625 43.43387276785714  C 28.662109375000004 43.338448660714285  28.652343750000004 43.26953124999999  28.65234375 43.227120535714285  C 28.6328125 43.12109375000001  28.59375 42.89843750000001  28.53515625 42.559151785714285  C 28.4765625 42.21986607142856  28.427734375 41.95479910714286  28.388671875 41.76395089285714  L 24.169921875 24.42857142857143  L 20.830078125 24.42857142857143  L 16.611328125 41.76395089285714  C 16.572265625 41.95479910714286  16.5283203125 42.21456473214286  16.4794921875 42.54324776785714  C 16.4306640625 42.87193080357142  16.396484375 43.09988839285714  16.376953125 43.227120535714285  L 16.259765625 43.895089285714285  L 16.142578125 43.895089285714285  L 16.083984375 43.227120535714285  C 16.044921875 42.67578125000001  15.976562500000002 42.188058035714285  15.87890625 41.76395089285714  L 12.978515625 27.83203125  L 15.615234375 27.83203125  L 15.615234375 24.42857142857143  Z " fill-rule="nonzero" fill="#000000" stroke="none" transform="matrix(1 0 0 1 460 409 )" />
  </g>
</svg>