<?xml version="1.0" encoding="utf-8"?>
<svg version="1.1" xmlns:xlink="http://www.w3.org/1999/xlink" width="50px" height="56px" xmlns="http://www.w3.org/2000/svg">
  <g transform="matrix(1 0 0 1 -385 -699 )">
    <path d="M 37.63020833333333 2.1250000000000018  L 47.78645833333333 11.874999999999998  C 48.39409722222223 12.458333333333329  48.91493055555556 13.250000000000004  49.34895833333333 14.25  C 49.78298611111111 15.250000000000002  50 16.166666666666664  50 17  L 50 53  C 50 53.833333333333336  49.69618055555555 54.541666666666664  49.08854166666667 55.125  C 48.480902777777786 55.708333333333336  47.74305555555556 56  46.875 56  L 3.125 56  C 2.2569444444444446 56  1.5190972222222223 55.708333333333336  0.9114583333333334 55.125  C 0.3038194444444444 54.541666666666664  0 53.833333333333336  0 53  L 0 3.0000000000000018  C 0 2.166666666666665  0.3038194444444444 1.4583333333333313  0.9114583333333334 0.875  C 1.5190972222222223 0.29166666666666874  2.2569444444444446 0  3.125 0  L 32.29166666666667 0  C 33.15972222222223 0  34.11458333333333 0.2083333333333357  35.15625 0.6250000000000009  C 36.19791666666667 1.041666666666666  37.02256944444445 1.5416666666666643  37.63020833333333 2.1250000000000018  Z M 34.66796875 4.937500000000003  C 34.40755208333333 4.687499999999997  33.962673611111114 4.458333333333327  33 4.249999999999997  L 33 16  L 45.57291666666667 16  C 45.355902777777786 15.395833333333327  45.1171875 14.968749999999996  44.85677083333333 14.718749999999998  L 34.66796875 4.937500000000003  Z M 5 52  L 45 52  L 45 20  L 32.29166666666667 20  C 31.42361111111111 19.999999999999996  30.68576388888889 19.70833333333333  30.078125 19.124999999999996  C 29.47048611111111 18.541666666666664  29.166666666666668 17.833333333333325  29 17  L 29 4  L 5 4  L 5 52  Z M 17.350260416666664 24  L 7.584635416666667 24  L 7.584635416666667 27.34375  L 9.86328125 27.34375  L 15.201822916666666 48  L 20.377604166666664 48  L 24.544270833333336 32.84375  C 24.696180555555557 32.427083333333336  24.8046875 31.947916666666664  24.869791666666664 31.406249999999996  C 24.913194444444446 31.072916666666664  24.934895833333336 30.822916666666664  24.934895833333336 30.65625  L 25.065104166666668 30.65625  L 25.162760416666668 31.406249999999996  C 25.184461805555557 31.46875  25.222439236111114 31.67708333333333  25.276692708333332 32.03125  C 25.330946180555557 32.385416666666664  25.390625 32.65625  25.455729166666668 32.84375  L 29.622395833333332 48  L 34.79817708333333 48  L 40.13671875 27.34375  L 42.41536458333333 27.34375  L 42.41536458333333 24  L 32.64973958333333 24  L 32.64973958333333 27.34375  L 35.57942708333333 27.34375  L 32.35677083333333 41.03125  C 32.24826388888889 41.44791666666667  32.17230902777778 41.927083333333336  32.12890625 42.46875  L 32.06380208333333 43.125  L 31.93359375 43.125  C 31.933593750000007 43.0625  31.928168402777786 42.994791666666664  31.917317708333332 42.921875  C 31.90646701388889 42.84895833333334  31.890190972222225 42.765625  31.868489583333332 42.671875  C 31.846788194444446 42.578125  31.835937500000007 42.510416666666664  31.8359375 42.46875  C 31.81423611111111 42.364583333333336  31.770833333333332 42.145833333333336  31.705729166666668 41.8125  C 31.640625 41.47916666666666  31.58637152777778 41.21875  31.54296875 41.03125  L 26.85546875 24  L 23.14453125 24  L 18.45703125 41.03125  C 18.413628472222225 41.21875  18.364800347222225 41.473958333333336  18.310546875 41.796875  C 18.25629340277778 42.119791666666664  18.218315972222225 42.34375  18.196614583333336 42.46875  L 18.06640625 43.125  L 17.936197916666664 43.125  L 17.87109375 42.46875  C 17.827690972222225 41.927083333333336  17.751736111111114 41.44791666666667  17.643229166666664 41.03125  L 14.420572916666666 27.34375  L 17.350260416666664 27.34375  L 17.350260416666664 24  Z " fill-rule="nonzero" fill="#000000" stroke="none" transform="matrix(1 0 0 1 385 699 )" />
  </g>
</svg>